<?xml version="1.0" encoding="UTF-8" standalone="no"?>
<!DOCTYPE svg PUBLIC "-//W3C//DTD SVG 1.1//EN"
 "http://www.w3.org/Graphics/SVG/1.1/DTD/svg11.dtd">
<!-- Generated by graphviz version 5.0.0 (20220707.1540)
 -->
<!-- Title: dependencies Pages: 1 -->
<svg width="322pt" height="196pt"
 viewBox="0.00 0.00 322.00 196.20" xmlns="http://www.w3.org/2000/svg" xmlns:xlink="http://www.w3.org/1999/xlink">
<g id="graph0" class="graph" transform="scale(1 1) rotate(0) translate(4 192.2)">
<title>dependencies</title>
<polygon fill="white" stroke="transparent" points="-4,4 -4,-192.2 318,-192.2 318,4 -4,4"/>
<text text-anchor="middle" x="157" y="-8.2" font-family="sans-serif" font-size="14.00">dependencies</text>
<g id="clust1" class="cluster">
<title>cluster_SharedModule</title>
<polygon fill="none" stroke="black" stroke-dasharray="1,5" points="8,-32.8 8,-180.2 306,-180.2 306,-32.8 8,-32.8"/>
</g>
<g id="clust4" class="cluster">
<title>cluster_SharedModule_exports</title>
<polygon fill="none" stroke="black" points="16,-97.8 16,-172.2 298,-172.2 298,-97.8 16,-97.8"/>
</g>
<!-- {
 &#160;&#160;&#160;provide: , useClass: HttpGrowattProvider,
}  -->
<g id="node1" class="node">
<title>{
 &#160;&#160;&#160;provide: , useClass: HttpGrowattProvider,
} </title>
<polygon fill="#fb8072" stroke="black" points="290.02,-164.4 23.98,-164.4 23.98,-105.6 290.02,-105.6 290.02,-164.4"/>
<text text-anchor="middle" x="157" y="-147.6" font-family="Times,serif" font-size="14.00">{</text>
<text text-anchor="middle" x="157" y="-130.8" font-family="Times,serif" font-size="14.00"> &#160;&#160;&#160;provide: , useClass: HttpGrowattProvider,</text>
<text text-anchor="middle" x="157" y="-114" font-family="Times,serif" font-size="14.00">} </text>
</g>
<!-- SharedModule -->
<g id="node2" class="node">
<title>SharedModule</title>
<polygon fill="#8dd3c7" stroke="black" points="206.43,-76.8 203.43,-80.8 182.43,-80.8 179.43,-76.8 107.57,-76.8 107.57,-40.8 206.43,-40.8 206.43,-76.8"/>
<text text-anchor="middle" x="157" y="-54.6" font-family="Times,serif" font-size="14.00">SharedModule</text>
</g>
<!-- SharedModule&#45;&gt;{
 &#160;&#160;&#160;provide: , useClass: HttpGrowattProvider,
}  -->
<g id="edge1" class="edge">
<title>SharedModule&#45;&gt;{
 &#160;&#160;&#160;provide: , useClass: HttpGrowattProvider,
} </title>
<path fill="none" stroke="black" stroke-dasharray="5,2" d="M157,-76.86C157,-76.86 157,-95.75 157,-95.75"/>
<polygon fill="black" stroke="black" points="153.5,-95.75 157,-105.75 160.5,-95.75 153.5,-95.75"/>
</g>
</g>
</svg>
