<?xml version="1.0" encoding="UTF-8" standalone="no"?>
<!DOCTYPE svg PUBLIC "-//W3C//DTD SVG 1.1//EN"
 "http://www.w3.org/Graphics/SVG/1.1/DTD/svg11.dtd">
<!-- Generated by graphviz version 5.0.0 (20220707.1540)
 -->
<!-- Title: dependencies Pages: 1 -->
<svg width="838pt" height="196pt"
 viewBox="0.00 0.00 838.00 196.20" xmlns="http://www.w3.org/2000/svg" xmlns:xlink="http://www.w3.org/1999/xlink">
<g id="graph0" class="graph" transform="scale(1 1) rotate(0) translate(4 192.2)">
<title>dependencies</title>
<polygon fill="white" stroke="transparent" points="-4,4 -4,-192.2 834,-192.2 834,4 -4,4"/>
<text text-anchor="middle" x="415" y="-8.2" font-family="sans-serif" font-size="14.00">dependencies</text>
<g id="clust1" class="cluster">
<title>cluster_SharedModule</title>
<polygon fill="none" stroke="black" stroke-dasharray="1,5" points="8,-32.8 8,-180.2 822,-180.2 822,-32.8 8,-32.8"/>
</g>
<g id="clust4" class="cluster">
<title>cluster_SharedModule_exports</title>
<polygon fill="none" stroke="black" points="16,-97.8 16,-172.2 814,-172.2 814,-97.8 16,-97.8"/>
</g>
<!-- {
 &#160;&#160;&#160;provide: , useClass: HttpGrowattProvider,
}  -->
<g id="node1" class="node">
<title>{
 &#160;&#160;&#160;provide: , useClass: HttpGrowattProvider,
} </title>
<polygon fill="#fb8072" stroke="black" points="806.02,-164.4 539.98,-164.4 539.98,-105.6 806.02,-105.6 806.02,-164.4"/>
<text text-anchor="middle" x="673" y="-147.6" font-family="Times,serif" font-size="14.00">{</text>
<text text-anchor="middle" x="673" y="-130.8" font-family="Times,serif" font-size="14.00"> &#160;&#160;&#160;provide: , useClass: HttpGrowattProvider,</text>
<text text-anchor="middle" x="673" y="-114" font-family="Times,serif" font-size="14.00">} </text>
</g>
<!-- {
 &#160;&#160;&#160;provide: , useClass: HttpMovideskProvider,
}  -->
<g id="node2" class="node">
<title>{
 &#160;&#160;&#160;provide: , useClass: HttpMovideskProvider,
} </title>
<polygon fill="#fb8072" stroke="black" points="522.15,-164.4 245.85,-164.4 245.85,-105.6 522.15,-105.6 522.15,-164.4"/>
<text text-anchor="middle" x="384" y="-147.6" font-family="Times,serif" font-size="14.00">{</text>
<text text-anchor="middle" x="384" y="-130.8" font-family="Times,serif" font-size="14.00"> &#160;&#160;&#160;provide: , useClass: HttpMovideskProvider,</text>
<text text-anchor="middle" x="384" y="-114" font-family="Times,serif" font-size="14.00">} </text>
</g>
<!-- {
 &#160;&#160;&#160;provide: , useClass: TicketUtil,
}  -->
<g id="node3" class="node">
<title>{
 &#160;&#160;&#160;provide: , useClass: TicketUtil,
} </title>
<polygon fill="#fb8072" stroke="black" points="228.08,-164.4 23.92,-164.4 23.92,-105.6 228.08,-105.6 228.08,-164.4"/>
<text text-anchor="middle" x="126" y="-147.6" font-family="Times,serif" font-size="14.00">{</text>
<text text-anchor="middle" x="126" y="-130.8" font-family="Times,serif" font-size="14.00"> &#160;&#160;&#160;provide: , useClass: TicketUtil,</text>
<text text-anchor="middle" x="126" y="-114" font-family="Times,serif" font-size="14.00">} </text>
</g>
<!-- SharedModule -->
<g id="node4" class="node">
<title>SharedModule</title>
<polygon fill="#8dd3c7" stroke="black" points="433.43,-76.8 430.43,-80.8 409.43,-80.8 406.43,-76.8 334.57,-76.8 334.57,-40.8 433.43,-40.8 433.43,-76.8"/>
<text text-anchor="middle" x="384" y="-54.6" font-family="Times,serif" font-size="14.00">SharedModule</text>
</g>
<!-- SharedModule&#45;&gt;{
 &#160;&#160;&#160;provide: , useClass: HttpGrowattProvider,
}  -->
<g id="edge1" class="edge">
<title>SharedModule&#45;&gt;{
 &#160;&#160;&#160;provide: , useClass: HttpGrowattProvider,
} </title>
<path fill="none" stroke="black" stroke-dasharray="5,2" d="M433.35,-59.2C515.89,-59.2 673,-59.2 673,-59.2 673,-59.2 673,-95.48 673,-95.48"/>
<polygon fill="black" stroke="black" points="669.5,-95.48 673,-105.48 676.5,-95.48 669.5,-95.48"/>
</g>
<!-- SharedModule&#45;&gt;{
 &#160;&#160;&#160;provide: , useClass: HttpMovideskProvider,
}  -->
<g id="edge2" class="edge">
<title>SharedModule&#45;&gt;{
 &#160;&#160;&#160;provide: , useClass: HttpMovideskProvider,
} </title>
<path fill="none" stroke="black" stroke-dasharray="5,2" d="M384,-76.86C384,-76.86 384,-95.75 384,-95.75"/>
<polygon fill="black" stroke="black" points="380.5,-95.75 384,-105.75 387.5,-95.75 380.5,-95.75"/>
</g>
<!-- SharedModule&#45;&gt;{
 &#160;&#160;&#160;provide: , useClass: TicketUtil,
}  -->
<g id="edge3" class="edge">
<title>SharedModule&#45;&gt;{
 &#160;&#160;&#160;provide: , useClass: TicketUtil,
} </title>
<path fill="none" stroke="black" stroke-dasharray="5,2" d="M334.56,-59.2C259.65,-59.2 126,-59.2 126,-59.2 126,-59.2 126,-95.48 126,-95.48"/>
<polygon fill="black" stroke="black" points="122.5,-95.48 126,-105.48 129.5,-95.48 122.5,-95.48"/>
</g>
</g>
</svg>
