<?xml version="1.0" encoding="UTF-8" standalone="no"?>
<!DOCTYPE svg PUBLIC "-//W3C//DTD SVG 1.1//EN"
 "http://www.w3.org/Graphics/SVG/1.1/DTD/svg11.dtd">
<!-- Generated by graphviz version 5.0.0 (20220707.1540)
 -->
<!-- Title: dependencies Pages: 1 -->
<svg width="527pt" height="174pt"
 viewBox="0.00 0.00 527.00 173.80" xmlns="http://www.w3.org/2000/svg" xmlns:xlink="http://www.w3.org/1999/xlink">
<g id="graph0" class="graph" transform="scale(1 1) rotate(0) translate(4 169.8)">
<title>dependencies</title>
<polygon fill="white" stroke="transparent" points="-4,4 -4,-169.8 523,-169.8 523,4 -4,4"/>
<text text-anchor="middle" x="259.5" y="-8.2" font-family="sans-serif" font-size="14.00">dependencies</text>
<g id="clust1" class="cluster">
<title>cluster_UpdateModule</title>
<polygon fill="none" stroke="black" stroke-dasharray="1,5" points="8,-32.8 8,-157.8 511,-157.8 511,-32.8 8,-32.8"/>
</g>
<g id="clust6" class="cluster">
<title>cluster_UpdateModule_providers</title>
<polygon fill="none" stroke="black" points="138,-40.8 138,-92.8 503,-92.8 503,-40.8 138,-40.8"/>
</g>
<g id="clust3" class="cluster">
<title>cluster_UpdateModule_imports</title>
<polygon fill="none" stroke="black" points="16,-40.8 16,-92.8 130,-92.8 130,-40.8 16,-40.8"/>
</g>
<!-- SharedModule -->
<g id="node1" class="node">
<title>SharedModule</title>
<polygon fill="#8dd3c7" stroke="black" points="122.43,-84.8 119.43,-88.8 98.43,-88.8 95.43,-84.8 23.57,-84.8 23.57,-48.8 122.43,-48.8 122.43,-84.8"/>
<text text-anchor="middle" x="73" y="-62.6" font-family="Times,serif" font-size="14.00">SharedModule</text>
</g>
<!-- UpdateModule -->
<g id="node2" class="node">
<title>UpdateModule</title>
<polygon fill="#8dd3c7" stroke="black" points="275.98,-149.8 272.98,-153.8 251.98,-153.8 248.98,-149.8 176.02,-149.8 176.02,-113.8 275.98,-113.8 275.98,-149.8"/>
<text text-anchor="middle" x="226" y="-127.6" font-family="Times,serif" font-size="14.00">UpdateModule</text>
</g>
<!-- SharedModule&#45;&gt;UpdateModule -->
<g id="edge1" class="edge">
<title>SharedModule&#45;&gt;UpdateModule</title>
<path fill="none" stroke="black" d="M73,-84.91C73,-104.14 73,-131.8 73,-131.8 73,-131.8 165.9,-131.8 165.9,-131.8"/>
<polygon fill="black" stroke="black" points="165.9,-135.3 175.9,-131.8 165.9,-128.3 165.9,-135.3"/>
</g>
<!-- UpdateOSSService -->
<g id="node3" class="node">
<title>UpdateOSSService</title>
<ellipse fill="#fdb462" stroke="black" cx="409" cy="-66.8" rx="85.69" ry="18"/>
<text text-anchor="middle" x="409" y="-62.6" font-family="Times,serif" font-size="14.00">UpdateOSSService</text>
</g>
<!-- UpdateOSSService&#45;&gt;UpdateModule -->
<g id="edge2" class="edge">
<title>UpdateOSSService&#45;&gt;UpdateModule</title>
<path fill="none" stroke="black" d="M409,-84.91C409,-104.14 409,-131.8 409,-131.8 409,-131.8 286.01,-131.8 286.01,-131.8"/>
<polygon fill="black" stroke="black" points="286.01,-128.3 276.01,-131.8 286.01,-135.3 286.01,-128.3"/>
</g>
<!-- UpdateV2Service -->
<g id="node4" class="node">
<title>UpdateV2Service</title>
<ellipse fill="#fdb462" stroke="black" cx="226" cy="-66.8" rx="79.86" ry="18"/>
<text text-anchor="middle" x="226" y="-62.6" font-family="Times,serif" font-size="14.00">UpdateV2Service</text>
</g>
<!-- UpdateV2Service&#45;&gt;UpdateModule -->
<g id="edge3" class="edge">
<title>UpdateV2Service&#45;&gt;UpdateModule</title>
<path fill="none" stroke="black" d="M226,-84.91C226,-84.91 226,-103.79 226,-103.79"/>
<polygon fill="black" stroke="black" points="222.5,-103.79 226,-113.79 229.5,-103.79 222.5,-103.79"/>
</g>
</g>
</svg>
