<?xml version="1.0" encoding="UTF-8" standalone="no"?>
<!DOCTYPE svg PUBLIC "-//W3C//DTD SVG 1.1//EN"
 "http://www.w3.org/Graphics/SVG/1.1/DTD/svg11.dtd">
<!-- Generated by graphviz version 5.0.0 (20220707.1540)
 -->
<!-- Title: dependencies Pages: 1 -->
<svg width="350pt" height="174pt"
 viewBox="0.00 0.00 350.00 173.80" xmlns="http://www.w3.org/2000/svg" xmlns:xlink="http://www.w3.org/1999/xlink">
<g id="graph0" class="graph" transform="scale(1 1) rotate(0) translate(4 169.8)">
<title>dependencies</title>
<polygon fill="white" stroke="transparent" points="-4,4 -4,-169.8 346,-169.8 346,4 -4,4"/>
<text text-anchor="middle" x="171" y="-8.2" font-family="sans-serif" font-size="14.00">dependencies</text>
<g id="clust1" class="cluster">
<title>cluster_UpdateModule</title>
<polygon fill="none" stroke="black" stroke-dasharray="1,5" points="8,-32.8 8,-157.8 334,-157.8 334,-32.8 8,-32.8"/>
</g>
<g id="clust3" class="cluster">
<title>cluster_UpdateModule_imports</title>
<polygon fill="none" stroke="black" points="212,-40.8 212,-92.8 326,-92.8 326,-40.8 212,-40.8"/>
</g>
<g id="clust6" class="cluster">
<title>cluster_UpdateModule_providers</title>
<polygon fill="none" stroke="black" points="16,-40.8 16,-92.8 204,-92.8 204,-40.8 16,-40.8"/>
</g>
<!-- SharedModule -->
<g id="node1" class="node">
<title>SharedModule</title>
<polygon fill="#8dd3c7" stroke="black" points="318.43,-84.8 315.43,-88.8 294.43,-88.8 291.43,-84.8 219.57,-84.8 219.57,-48.8 318.43,-48.8 318.43,-84.8"/>
<text text-anchor="middle" x="269" y="-62.6" font-family="Times,serif" font-size="14.00">SharedModule</text>
</g>
<!-- UpdateModule -->
<g id="node2" class="node">
<title>UpdateModule</title>
<polygon fill="#8dd3c7" stroke="black" points="238.98,-149.8 235.98,-153.8 214.98,-153.8 211.98,-149.8 139.02,-149.8 139.02,-113.8 238.98,-113.8 238.98,-149.8"/>
<text text-anchor="middle" x="189" y="-127.6" font-family="Times,serif" font-size="14.00">UpdateModule</text>
</g>
<!-- SharedModule&#45;&gt;UpdateModule -->
<g id="edge1" class="edge">
<title>SharedModule&#45;&gt;UpdateModule</title>
<path fill="none" stroke="black" d="M229.39,-84.91C229.39,-84.91 229.39,-103.79 229.39,-103.79"/>
<polygon fill="black" stroke="black" points="225.89,-103.79 229.39,-113.79 232.89,-103.79 225.89,-103.79"/>
</g>
<!-- UpdateOSSService -->
<g id="node3" class="node">
<title>UpdateOSSService</title>
<ellipse fill="#fdb462" stroke="black" cx="110" cy="-66.8" rx="85.69" ry="18"/>
<text text-anchor="middle" x="110" y="-62.6" font-family="Times,serif" font-size="14.00">UpdateOSSService</text>
</g>
<!-- UpdateOSSService&#45;&gt;UpdateModule -->
<g id="edge2" class="edge">
<title>UpdateOSSService&#45;&gt;UpdateModule</title>
<path fill="none" stroke="black" d="M167.3,-80.27C167.3,-80.27 167.3,-103.66 167.3,-103.66"/>
<polygon fill="black" stroke="black" points="163.8,-103.66 167.3,-113.66 170.8,-103.66 163.8,-103.66"/>
</g>
</g>
</svg>
