<?xml version="1.0" encoding="UTF-8" standalone="no"?>
<!DOCTYPE svg PUBLIC "-//W3C//DTD SVG 1.1//EN"
 "http://www.w3.org/Graphics/SVG/1.1/DTD/svg11.dtd">
<!-- Generated by graphviz version 5.0.0 (20220707.1540)
 -->
<!-- Title: dependencies Pages: 1 -->
<svg width="824pt" height="272pt"
 viewBox="0.00 0.00 824.00 272.20" xmlns="http://www.w3.org/2000/svg" xmlns:xlink="http://www.w3.org/1999/xlink">
<g id="graph0" class="graph" transform="scale(1 1) rotate(0) translate(4 268.2)">
<title>dependencies</title>
<polygon fill="white" stroke="transparent" points="-4,4 -4,-268.2 820,-268.2 820,4 -4,4"/>
<text text-anchor="middle" x="408" y="-8.2" font-family="sans-serif" font-size="14.00">dependencies</text>
<g id="clust1" class="cluster">
<title>cluster_AppModule</title>
<polygon fill="none" stroke="black" stroke-dasharray="1,5" points="220,-32.8 220,-256.2 502,-256.2 502,-32.8 220,-32.8"/>
</g>
<g id="clust3" class="cluster">
<title>cluster_AppModule_imports</title>
<polygon fill="none" stroke="black" points="366,-40.8 366,-180 482,-180 482,-40.8 366,-40.8"/>
</g>
<g id="clust6" class="cluster">
<title>cluster_AppModule_providers</title>
<polygon fill="none" stroke="black" points="228,-128 228,-180 358,-180 358,-128 228,-128"/>
</g>
<g id="clust7" class="cluster">
<title>cluster_SharedModule</title>
<polygon fill="none" stroke="black" stroke-dasharray="1,5" points="510,-108.8 510,-199.2 808,-199.2 808,-108.8 510,-108.8"/>
</g>
<g id="clust10" class="cluster">
<title>cluster_SharedModule_exports</title>
<polygon fill="none" stroke="black" points="518,-116.8 518,-191.2 800,-191.2 800,-116.8 518,-116.8"/>
</g>
<g id="clust13" class="cluster">
<title>cluster_UpdateModule</title>
<polygon fill="none" stroke="black" stroke-dasharray="1,5" points="8,-32.8 8,-100.8 212,-100.8 212,-32.8 8,-32.8"/>
</g>
<g id="clust18" class="cluster">
<title>cluster_UpdateModule_providers</title>
<polygon fill="none" stroke="black" points="16,-40.8 16,-92.8 204,-92.8 204,-40.8 16,-40.8"/>
</g>
<!-- SharedModule -->
<g id="node1" class="node">
<title>SharedModule</title>
<polygon fill="#8dd3c7" stroke="black" points="474.43,-84.8 471.43,-88.8 450.43,-88.8 447.43,-84.8 375.57,-84.8 375.57,-48.8 474.43,-48.8 474.43,-84.8"/>
<text text-anchor="middle" x="425" y="-62.6" font-family="Times,serif" font-size="14.00">SharedModule</text>
</g>
<!-- UpdateModule -->
<g id="node2" class="node">
<title>UpdateModule</title>
<polygon fill="#8dd3c7" stroke="black" points="473.98,-172 470.98,-176 449.98,-176 446.98,-172 374.02,-172 374.02,-136 473.98,-136 473.98,-172"/>
<text text-anchor="middle" x="424" y="-149.8" font-family="Times,serif" font-size="14.00">UpdateModule</text>
</g>
<!-- SharedModule&#45;&gt;UpdateModule -->
<g id="edge5" class="edge">
<title>SharedModule&#45;&gt;UpdateModule</title>
<path fill="none" stroke="black" d="M408.52,-84.87C408.52,-84.87 408.52,-125.96 408.52,-125.96"/>
<polygon fill="black" stroke="black" points="405.02,-125.96 408.52,-135.96 412.02,-125.96 405.02,-125.96"/>
</g>
<!-- AppModule -->
<g id="node3" class="node">
<title>AppModule</title>
<polygon fill="#8dd3c7" stroke="black" points="465.66,-248.2 462.66,-252.2 441.66,-252.2 438.66,-248.2 382.34,-248.2 382.34,-212.2 465.66,-212.2 465.66,-248.2"/>
<text text-anchor="middle" x="424" y="-226" font-family="Times,serif" font-size="14.00">AppModule</text>
</g>
<!-- SharedModule&#45;&gt;AppModule -->
<g id="edge1" class="edge">
<title>SharedModule&#45;&gt;AppModule</title>
<path fill="none" stroke="black" d="M375.64,-73.2C369.81,-73.2 365.88,-73.2 365.88,-73.2 365.88,-73.2 365.88,-224.2 365.88,-224.2 365.88,-224.2 372.07,-224.2 372.07,-224.2"/>
<polygon fill="black" stroke="black" points="372.07,-227.7 382.07,-224.2 372.07,-220.7 372.07,-227.7"/>
</g>
<!-- {
 &#160;&#160;&#160;provide: , useClass: HttpGrowattProvider,
}  -->
<g id="node5" class="node">
<title>{
 &#160;&#160;&#160;provide: , useClass: HttpGrowattProvider,
} </title>
<polygon fill="#fb8072" stroke="black" points="792.02,-183.4 525.98,-183.4 525.98,-124.6 792.02,-124.6 792.02,-183.4"/>
<text text-anchor="middle" x="659" y="-166.6" font-family="Times,serif" font-size="14.00">{</text>
<text text-anchor="middle" x="659" y="-149.8" font-family="Times,serif" font-size="14.00"> &#160;&#160;&#160;provide: , useClass: HttpGrowattProvider,</text>
<text text-anchor="middle" x="659" y="-133" font-family="Times,serif" font-size="14.00">} </text>
</g>
<!-- SharedModule&#45;&gt;{
 &#160;&#160;&#160;provide: , useClass: HttpGrowattProvider,
}  -->
<g id="edge4" class="edge">
<title>SharedModule&#45;&gt;{
 &#160;&#160;&#160;provide: , useClass: HttpGrowattProvider,
} </title>
<path fill="none" stroke="black" stroke-dasharray="5,2" d="M441.26,-85.08C441.26,-104.12 441.26,-131.2 441.26,-131.2 441.26,-131.2 515.75,-131.2 515.75,-131.2"/>
<polygon fill="black" stroke="black" points="515.75,-134.7 525.75,-131.2 515.75,-127.7 515.75,-134.7"/>
</g>
<!-- UpdateModule&#45;&gt;AppModule -->
<g id="edge2" class="edge">
<title>UpdateModule&#45;&gt;AppModule</title>
<path fill="none" stroke="black" d="M424,-172.06C424,-172.06 424,-202.01 424,-202.01"/>
<polygon fill="black" stroke="black" points="420.5,-202.01 424,-212.01 427.5,-202.01 420.5,-202.01"/>
</g>
<!-- AppService -->
<g id="node4" class="node">
<title>AppService</title>
<ellipse fill="#fdb462" stroke="black" cx="293" cy="-154" rx="56.75" ry="18"/>
<text text-anchor="middle" x="293" y="-149.8" font-family="Times,serif" font-size="14.00">AppService</text>
</g>
<!-- AppService&#45;&gt;AppModule -->
<g id="edge3" class="edge">
<title>AppService&#45;&gt;AppModule</title>
<path fill="none" stroke="black" d="M293,-172.24C293,-196.46 293,-236.2 293,-236.2 293,-236.2 372.19,-236.2 372.19,-236.2"/>
<polygon fill="black" stroke="black" points="372.19,-239.7 382.19,-236.2 372.19,-232.7 372.19,-239.7"/>
</g>
<!-- UpdateOSSService -->
<g id="node6" class="node">
<title>UpdateOSSService</title>
<ellipse fill="#fdb462" stroke="black" cx="110" cy="-66.8" rx="85.69" ry="18"/>
<text text-anchor="middle" x="110" y="-62.6" font-family="Times,serif" font-size="14.00">UpdateOSSService</text>
</g>
<!-- UpdateOSSService&#45;&gt;UpdateModule -->
<g id="edge6" class="edge">
<title>UpdateOSSService&#45;&gt;UpdateModule</title>
<path fill="none" stroke="black" d="M191.47,-61.2C263.68,-61.2 357.75,-61.2 357.75,-61.2 357.75,-61.2 357.75,-154.2 357.75,-154.2 357.75,-154.2 363.79,-154.2 363.79,-154.2"/>
<polygon fill="black" stroke="black" points="363.79,-157.7 373.79,-154.2 363.79,-150.7 363.79,-157.7"/>
</g>
</g>
</svg>
