<?xml version="1.0" encoding="UTF-8" standalone="no"?>
<!DOCTYPE svg PUBLIC "-//W3C//DTD SVG 1.1//EN"
 "http://www.w3.org/Graphics/SVG/1.1/DTD/svg11.dtd">
<!-- Generated by graphviz version 5.0.0 (20220707.1540)
 -->
<!-- Title: dependencies Pages: 1 -->
<svg width="1517pt" height="272pt"
 viewBox="0.00 0.00 1517.00 272.20" xmlns="http://www.w3.org/2000/svg" xmlns:xlink="http://www.w3.org/1999/xlink">
<g id="graph0" class="graph" transform="scale(1 1) rotate(0) translate(4 268.2)">
<title>dependencies</title>
<polygon fill="white" stroke="transparent" points="-4,4 -4,-268.2 1513,-268.2 1513,4 -4,4"/>
<text text-anchor="middle" x="754.5" y="-8.2" font-family="sans-serif" font-size="14.00">dependencies</text>
<g id="clust1" class="cluster">
<title>cluster_AppModule</title>
<polygon fill="none" stroke="black" stroke-dasharray="1,5" points="397,-32.8 397,-256.2 679,-256.2 679,-32.8 397,-32.8"/>
</g>
<g id="clust3" class="cluster">
<title>cluster_AppModule_imports</title>
<polygon fill="none" stroke="black" points="543,-40.8 543,-180 659,-180 659,-40.8 543,-40.8"/>
</g>
<g id="clust6" class="cluster">
<title>cluster_AppModule_providers</title>
<polygon fill="none" stroke="black" points="405,-128 405,-180 535,-180 535,-128 405,-128"/>
</g>
<g id="clust7" class="cluster">
<title>cluster_SharedModule</title>
<polygon fill="none" stroke="black" stroke-dasharray="1,5" points="687,-108.8 687,-199.2 1501,-199.2 1501,-108.8 687,-108.8"/>
</g>
<g id="clust10" class="cluster">
<title>cluster_SharedModule_exports</title>
<polygon fill="none" stroke="black" points="695,-116.8 695,-191.2 1493,-191.2 1493,-116.8 695,-116.8"/>
</g>
<g id="clust13" class="cluster">
<title>cluster_UpdateModule</title>
<polygon fill="none" stroke="black" stroke-dasharray="1,5" points="8,-32.8 8,-100.8 389,-100.8 389,-32.8 8,-32.8"/>
</g>
<g id="clust18" class="cluster">
<title>cluster_UpdateModule_providers</title>
<polygon fill="none" stroke="black" points="16,-40.8 16,-92.8 381,-92.8 381,-40.8 16,-40.8"/>
</g>
<!-- SharedModule -->
<g id="node1" class="node">
<title>SharedModule</title>
<polygon fill="#8dd3c7" stroke="black" points="651.43,-84.8 648.43,-88.8 627.43,-88.8 624.43,-84.8 552.57,-84.8 552.57,-48.8 651.43,-48.8 651.43,-84.8"/>
<text text-anchor="middle" x="602" y="-62.6" font-family="Times,serif" font-size="14.00">SharedModule</text>
</g>
<!-- UpdateModule -->
<g id="node2" class="node">
<title>UpdateModule</title>
<polygon fill="#8dd3c7" stroke="black" points="650.98,-172 647.98,-176 626.98,-176 623.98,-172 551.02,-172 551.02,-136 650.98,-136 650.98,-172"/>
<text text-anchor="middle" x="601" y="-149.8" font-family="Times,serif" font-size="14.00">UpdateModule</text>
</g>
<!-- SharedModule&#45;&gt;UpdateModule -->
<g id="edge7" class="edge">
<title>SharedModule&#45;&gt;UpdateModule</title>
<path fill="none" stroke="black" d="M601.89,-84.87C601.89,-84.87 601.89,-125.96 601.89,-125.96"/>
<polygon fill="black" stroke="black" points="598.39,-125.96 601.89,-135.96 605.39,-125.96 598.39,-125.96"/>
</g>
<!-- AppModule -->
<g id="node3" class="node">
<title>AppModule</title>
<polygon fill="#8dd3c7" stroke="black" points="642.66,-248.2 639.66,-252.2 618.66,-252.2 615.66,-248.2 559.34,-248.2 559.34,-212.2 642.66,-212.2 642.66,-248.2"/>
<text text-anchor="middle" x="601" y="-226" font-family="Times,serif" font-size="14.00">AppModule</text>
</g>
<!-- SharedModule&#45;&gt;AppModule -->
<g id="edge1" class="edge">
<title>SharedModule&#45;&gt;AppModule</title>
<path fill="none" stroke="black" d="M552.64,-73.2C546.81,-73.2 542.88,-73.2 542.88,-73.2 542.88,-73.2 542.88,-224.2 542.88,-224.2 542.88,-224.2 549.07,-224.2 549.07,-224.2"/>
<polygon fill="black" stroke="black" points="549.07,-227.7 559.07,-224.2 549.07,-220.7 549.07,-227.7"/>
</g>
<!-- {
 &#160;&#160;&#160;provide: , useClass: HttpGrowattProvider,
}  -->
<g id="node5" class="node">
<title>{
 &#160;&#160;&#160;provide: , useClass: HttpGrowattProvider,
} </title>
<polygon fill="#fb8072" stroke="black" points="1485.02,-183.4 1218.98,-183.4 1218.98,-124.6 1485.02,-124.6 1485.02,-183.4"/>
<text text-anchor="middle" x="1352" y="-166.6" font-family="Times,serif" font-size="14.00">{</text>
<text text-anchor="middle" x="1352" y="-149.8" font-family="Times,serif" font-size="14.00"> &#160;&#160;&#160;provide: , useClass: HttpGrowattProvider,</text>
<text text-anchor="middle" x="1352" y="-133" font-family="Times,serif" font-size="14.00">} </text>
</g>
<!-- SharedModule&#45;&gt;{
 &#160;&#160;&#160;provide: , useClass: HttpGrowattProvider,
}  -->
<g id="edge4" class="edge">
<title>SharedModule&#45;&gt;{
 &#160;&#160;&#160;provide: , useClass: HttpGrowattProvider,
} </title>
<path fill="none" stroke="black" stroke-dasharray="5,2" d="M651.5,-61.2C818.68,-61.2 1352,-61.2 1352,-61.2 1352,-61.2 1352,-114.64 1352,-114.64"/>
<polygon fill="black" stroke="black" points="1348.5,-114.64 1352,-124.64 1355.5,-114.64 1348.5,-114.64"/>
</g>
<!-- {
 &#160;&#160;&#160;provide: , useClass: HttpMovideskProvider,
}  -->
<g id="node6" class="node">
<title>{
 &#160;&#160;&#160;provide: , useClass: HttpMovideskProvider,
} </title>
<polygon fill="#fb8072" stroke="black" points="1201.15,-183.4 924.85,-183.4 924.85,-124.6 1201.15,-124.6 1201.15,-183.4"/>
<text text-anchor="middle" x="1063" y="-166.6" font-family="Times,serif" font-size="14.00">{</text>
<text text-anchor="middle" x="1063" y="-149.8" font-family="Times,serif" font-size="14.00"> &#160;&#160;&#160;provide: , useClass: HttpMovideskProvider,</text>
<text text-anchor="middle" x="1063" y="-133" font-family="Times,serif" font-size="14.00">} </text>
</g>
<!-- SharedModule&#45;&gt;{
 &#160;&#160;&#160;provide: , useClass: HttpMovideskProvider,
}  -->
<g id="edge5" class="edge">
<title>SharedModule&#45;&gt;{
 &#160;&#160;&#160;provide: , useClass: HttpMovideskProvider,
} </title>
<path fill="none" stroke="black" stroke-dasharray="5,2" d="M651.34,-73.2C770.26,-73.2 1063,-73.2 1063,-73.2 1063,-73.2 1063,-114.37 1063,-114.37"/>
<polygon fill="black" stroke="black" points="1059.5,-114.37 1063,-124.37 1066.5,-114.37 1059.5,-114.37"/>
</g>
<!-- {
 &#160;&#160;&#160;provide: , useClass: TicketUtil,
}  -->
<g id="node7" class="node">
<title>{
 &#160;&#160;&#160;provide: , useClass: TicketUtil,
} </title>
<polygon fill="#fb8072" stroke="black" points="907.08,-183.4 702.92,-183.4 702.92,-124.6 907.08,-124.6 907.08,-183.4"/>
<text text-anchor="middle" x="805" y="-166.6" font-family="Times,serif" font-size="14.00">{</text>
<text text-anchor="middle" x="805" y="-149.8" font-family="Times,serif" font-size="14.00"> &#160;&#160;&#160;provide: , useClass: TicketUtil,</text>
<text text-anchor="middle" x="805" y="-133" font-family="Times,serif" font-size="14.00">} </text>
</g>
<!-- SharedModule&#45;&gt;{
 &#160;&#160;&#160;provide: , useClass: TicketUtil,
}  -->
<g id="edge6" class="edge">
<title>SharedModule&#45;&gt;{
 &#160;&#160;&#160;provide: , useClass: TicketUtil,
} </title>
<path fill="none" stroke="black" stroke-dasharray="5,2" d="M626.44,-85.08C626.44,-104.12 626.44,-131.2 626.44,-131.2 626.44,-131.2 692.68,-131.2 692.68,-131.2"/>
<polygon fill="black" stroke="black" points="692.68,-134.7 702.68,-131.2 692.68,-127.7 692.68,-134.7"/>
</g>
<!-- UpdateModule&#45;&gt;AppModule -->
<g id="edge2" class="edge">
<title>UpdateModule&#45;&gt;AppModule</title>
<path fill="none" stroke="black" d="M601,-172.06C601,-172.06 601,-202.01 601,-202.01"/>
<polygon fill="black" stroke="black" points="597.5,-202.01 601,-212.01 604.5,-202.01 597.5,-202.01"/>
</g>
<!-- AppService -->
<g id="node4" class="node">
<title>AppService</title>
<ellipse fill="#fdb462" stroke="black" cx="470" cy="-154" rx="56.75" ry="18"/>
<text text-anchor="middle" x="470" y="-149.8" font-family="Times,serif" font-size="14.00">AppService</text>
</g>
<!-- AppService&#45;&gt;AppModule -->
<g id="edge3" class="edge">
<title>AppService&#45;&gt;AppModule</title>
<path fill="none" stroke="black" d="M470,-172.24C470,-196.46 470,-236.2 470,-236.2 470,-236.2 549.19,-236.2 549.19,-236.2"/>
<polygon fill="black" stroke="black" points="549.19,-239.7 559.19,-236.2 549.19,-232.7 549.19,-239.7"/>
</g>
<!-- UpdateOSSService -->
<g id="node8" class="node">
<title>UpdateOSSService</title>
<ellipse fill="#fdb462" stroke="black" cx="287" cy="-66.8" rx="85.69" ry="18"/>
<text text-anchor="middle" x="287" y="-62.6" font-family="Times,serif" font-size="14.00">UpdateOSSService</text>
</g>
<!-- UpdateOSSService&#45;&gt;UpdateModule -->
<g id="edge8" class="edge">
<title>UpdateOSSService&#45;&gt;UpdateModule</title>
<path fill="none" stroke="black" d="M368.47,-61.2C440.68,-61.2 534.75,-61.2 534.75,-61.2 534.75,-61.2 534.75,-154.2 534.75,-154.2 534.75,-154.2 540.79,-154.2 540.79,-154.2"/>
<polygon fill="black" stroke="black" points="540.79,-157.7 550.79,-154.2 540.79,-150.7 540.79,-157.7"/>
</g>
<!-- UpdateV2Service -->
<g id="node9" class="node">
<title>UpdateV2Service</title>
<ellipse fill="#fdb462" stroke="black" cx="104" cy="-66.8" rx="79.86" ry="18"/>
<text text-anchor="middle" x="104" y="-62.6" font-family="Times,serif" font-size="14.00">UpdateV2Service</text>
</g>
<!-- UpdateV2Service&#45;&gt;UpdateModule -->
<g id="edge9" class="edge">
<title>UpdateV2Service&#45;&gt;UpdateModule</title>
<path fill="none" stroke="black" d="M104,-85.1C104,-94.99 104,-105.2 104,-105.2 104,-105.2 577.34,-105.2 577.34,-105.2 577.34,-105.2 577.34,-125.83 577.34,-125.83"/>
<polygon fill="black" stroke="black" points="573.84,-125.83 577.34,-135.83 580.84,-125.83 573.84,-125.83"/>
</g>
</g>
</svg>
